<?xml version="1.0" standalone="yes"?>
<svg xmlns="http://www.w3.org/2000/svg" width="121" height="41">
<path style="fill:#ffffff; stroke:none;" d="M0 0L0 1C10.8876 4.14252 20.1867 12.0366 18 24C34.3071 24 52.295 23.4825 60 41L61 41C68.705 23.4825 86.6929 24 103 24C100.813 12.0366 110.112 4.14252 121 1L121 0C109.326 0 93.3402 -2.88528 82.1327 0.317902C77.0983 1.75677 76.2902 8.13196 70.0193 8.38349C65.6082 8.56041 64.9252 4.40779 64 1L63 1L63 5L57 2C55.6466 5.6048 54.602 8.99307 49.9961 8.25694C44.5001 7.37854 43.5308 1.65078 38.8673 0.317902C27.6598 -2.88528 11.674 0 0 0z"/>
</svg>
