<?xml version="1.0" standalone="yes"?>
<svg xmlns="http://www.w3.org/2000/svg" width="470" height="599">
<path style="fill:#0541a9; stroke:none;" d="M129 40L101 47.2901L90.8542 51.4298L85 73C75.8947 73.794 66.8448 77.3856 58 79.6258C54.775 80.4426 50.1494 80.8213 47.8573 83.5131C42.5438 89.7531 43.3422 106.167 42.9614 114C41.5589 142.853 42.4826 171.403 47.2469 200C62.0824 289.047 105.748 372.822 172.17 434.325C189.443 450.319 209.304 470.782 231 480.721C241.233 485.41 259.456 466.727 267 460.789C299.626 435.112 328.59 404.902 352.576 371C397.16 307.983 426.626 228.745 427.001 151C427.082 134.195 427.891 117.808 425.576 101C424.859 95.7878 425.012 88.9619 422.347 84.2786C416.94 74.774 394.632 78.8895 386.43 72.1458C380.253 67.0675 384.285 54.7812 377.697 50.1396C368.404 43.5931 349.289 47.421 341.738 38.5702C337.356 33.4327 340.332 22.2444 334.567 18.314C325.46 12.1052 305.825 12.4171 295 10.3889C275.684 6.7699 254.676 0.143738 235 0.00463867C216.861 -0.123596 196.787 6.04889 179 9.60034C168.696 11.6578 158.329 13.4537 148 15.3889C144.01 16.1364 137.74 16.036 134.564 18.8572C130.456 22.5063 129.431 34.7268 129 40z"/>
<path style="fill:#648ec7; stroke:none;" d="M215 58L215 59L220 59L215 58M249 58L249 59L257 59L249 58M209 59L209 60L212 60L209 59z"/>
<path style="fill:#fcfdfe; stroke:none;" d="M193 311L192 311C174.434 256.997 169.937 201.179 166.09 145C164.546 122.461 171.398 94.6459 165 73C157.539 75.133 142.217 80.4194 138.028 87.3287C133.263 95.1866 137 114.861 137 124C137 158.803 139.324 193.508 144.13 228C145.574 238.358 147.16 248.741 149.2 259C149.892 262.48 152.37 268.372 150.223 271.62C144.178 280.767 139.199 269.034 137.319 264C131.566 248.588 126.979 233.04 123.35 217C120.141 202.821 117.883 188.429 116.155 174C113.543 152.185 112 129.961 112 108C102.935 110.544 87.5509 126.61 85.3943 136C84.1066 141.606 85.8215 147.385 85.9861 153C87.135 192.182 97.3103 234.464 111.192 271C115.303 281.819 119.516 292.8 125.028 303C127.039 306.722 129.038 311.959 133.043 313.957C140.181 317.517 154.472 305.019 160 301C167.047 331.461 181.88 362.03 199.003 388C204.657 396.575 211.463 409.516 221 414L221 59C214.123 59.0046 198.885 58.8373 193.603 63.8572C190.328 66.9699 192 75.8704 192 80L192 124C192 167.726 193 211.299 193 255C193 272.208 196.889 294.474 193 311M249 59L249 414C265.049 406.56 279.462 386.945 291.17 374C323.112 338.684 354.652 300.271 368.975 254C377.39 226.814 378.597 186.218 344 178C350.298 167.885 356.745 158.926 359.332 147C372.818 84.8196 298.298 59 249 59z"/>
<path style="fill:#648ec7; stroke:none;" d="M262 59L262 60L266 60L262 59M203 60L203 61L206 61L203 60M270 60L270 61L273 61L270 60M199.667 61.3333L200.333 61.6667L199.667 61.3333M276 61L276 62L279 62L276 61M194.667 62.3333L195.333 62.6667L194.667 62.3333M281.667 62.3333L282.333 62.6667L281.667 62.3333M192 63L193 64L192 63M286.667 63.3333L287.333 63.6667L286.667 63.3333M290.667 64.3333L291.333 64.6667L290.667 64.3333M191 65L191 109L192 109C192 96.5196 195.81 76.4634 191 65M294.667 65.3333L295.333 65.6667L294.667 65.3333M297.667 66.3333L298.333 66.6667L297.667 66.3333M301 67L302 68L301 67M304 68L305 69L304 68M306.667 69.3333L307.333 69.6667L306.667 69.3333M309 70L310 71L309 70M312 71L313 72L312 71M314 72L315 73L314 72M162 73L163 74L162 73M165 73L166 74L165 73M316 73L317 74L316 73M160 74L161 75L160 74M318 74L319 75L318 74M158 75L159 76L158 75M320 75L321 76L320 75M155 76L156 77L155 76M322 76L323 77L322 76M153 77L154 78L153 77M324 77L325 78L324 77z"/>
<path style="fill:#021aa5; stroke:none;" d="M403 77L404 78L403 77z"/>
<path style="fill:#648ec7; stroke:none;" d="M151 78L152 79L151 78M326 78L327 79L326 78M149 79L150 80L149 79M328 79L329 80L328 79M148 80L149 81L148 80M329 80L330 81L329 80M146 81L147 82L146 81M331 81L332 82L331 81M144 82L145 83L144 82M332 82L333 83L332 82M142 83L143 84L142 83M334 83L335 84L334 83z"/>
<path style="fill:#648ec7; stroke:none;" d="M335 84L336 85L335 84M139 85L140 86L139 85M339 87L340 88L339 87z"/>
<path style="fill:#648ec7; stroke:none;" d="M340 88L341 89L340 88M136 89L136 137L137 137C137 123.474 141.209 101.414 136 89M341 89L342 90L341 89M342 90L343 91L342 90M278 91L277 126L277 196L278 196L278 121C278 113.177 275.181 98.3608 280 92L278 91M343 91L344 92L343 91z"/>
<path style="fill:#0541a9; stroke:none;" d="M278 92L278 196C306.911 182.326 355.975 134.457 317 104.9C312.105 101.187 306.761 98.5288 301 96.4359C293.744 93.7998 285.718 92.1593 278 92z"/>
<path style="fill:#648ec7; stroke:none;" d="M284 92L284 93L287 93L284 92M344 92L345 93L344 92M290.667 93.3333L291.333 93.6667L290.667 93.3333M345 93L346 94L345 93M294.667 94.3333L295.333 94.6667L294.667 94.3333M346 94L347 95L346 94M298 95L299 96L298 95M347 95L348 96L347 95M301 96L302 97L301 96M348 96L349 97L348 96M303.667 97.3333L304.333 97.6667L303.667 97.3333M306 98L307 99L306 98M308 99L309 100L308 99M350 99L351 100L350 99M310 100L311 101L310 100M351 100L352 101L351 100M313 102L314 103L313 102M352 102L353 103L352 102M353 103L354 104L353 103M316 104L317 105L316 104M317 105L318 106L317 105M354 105L355 106L354 105M110.667 107.333L111.333 107.667L110.667 107.333M355 107L356 108L355 107M112 108L112 122L113 122L112 108M321 108L322 109L321 108M322 109L323 110L322 109M356 109L357 110L356 109M357.333 111.667L357.667 112.333L357.333 111.667M103 113L104 114L103 113M325 113L326 114L325 113M102 114L103 115L102 114M326 114L327 115L326 114M358.333 114.667L358.667 115.333L358.333 114.667M101 115L102 116L101 115M100 116L101 117L100 116M327 116L328 117L327 116M99 117L100 118L99 117M359.333 117.667L359.667 118.333L359.333 117.667M98 118L99 119L98 118M328 118L329 119L328 118M329 120L330 121L329 120M360 121L360 124L361 124L360 121M330.333 123.667L330.667 124.333L330.333 123.667M91 126L92 127L91 126M90 127L91 128L90 127M89 128L90 129L89 128M331 128L331 134L332 134L331 128M86 132L87 133L86 132M85 134L86 135L85 134M166 134L166 149L167 149L166 134M113 136L113 146L114 146L113 136M330.333 138.667L330.667 139.333L330.333 138.667M360 139L360 143L361 143L360 139M329.333 142.667L329.667 143.333L329.333 142.667M328.333 145.667L328.667 146.333L328.333 145.667M359.333 146.667L359.667 147.333L359.333 146.667M85 147L85 154L86 154L85 147M327 148L328 149L327 148M326 150L327 151L326 150M358 150L359 151L358 150M114 152L114 159L115 159L114 152M137 152L137 163L138 163L137 152M325 152L326 153L325 152M357 153L358 154L357 153M324 154L325 155L324 154M323 156L324 157L323 156M356 156L357 157L356 156M322 157L323 158L322 157M355 158L356 159L355 158M167 159L167 168L168 168L167 159M321 159L322 160L321 159M86 160L86 165L87 165L86 160M320 160L321 161L320 160M354 161L355 162L354 161M319 162L320 163L319 162M318 163L319 164L318 163M353 163L354 164L353 163M115 164L115 169L116 169L115 164M317 164L318 165L317 164M351 166L352 167L351 166M350 168L351 169L350 168M87 169L87 173L88 173L87 169M312 170L313 171L312 170M138 171L138 179L139 179L138 171M311 171L312 172L311 171M348 171L349 172L348 171M310 172L311 173L310 172M347 172L348 173L347 172M116 173L116 177L117 177L116 173M309 173L310 174L309 173M345 175L346 176L345 175M168 176L168 183L169 183L168 176M344.333 176.667L344.667 177.333L344.333 176.667M88 177L88 181L89 181L88 177M304 177L305 178L304 177M303 178L304 179L303 178M346.667 178.333L347.333 178.667L346.667 178.333M302 179L303 180L302 179M349 179L350 180L349 179M301 180L302 181L301 180M351 180L352 181L351 180M117 181L117 185L118 185L117 181M353 181L354 182L353 181M298 182L299 183L298 182M355 182L356 183L355 182M297 183L298 184L297 183M357 183L358 184L357 183M89 184L89 187L90 187L89 184M358 184L359 185L358 184M139 185L139 191L140 191L139 185M294 185L295 186L294 185M293 186L294 187L293 186M291 187L292 188L291 187M118 188L118 192L119 192L118 188M290 188L291 189L290 188M169 189L169 195L170 195L169 189M90 190L90 193L91 193L90 190M287 190L288 191L287 190M285 191L286 192L285 191M365 191L366 192L365 191M284 192L285 193L284 192M366 192L367 193L366 192M282 193L283 194L282 193M367 194L368 195L367 194M119 195L119 198L120 198L119 195M279 195L280 196L279 195M91 196L91 199L92 199L91 196M140 197L140 202L141 202L140 197M369 197L370 198L369 197M170 200L170 205L171 205L170 200M370 200L371 201L370 200z"/>
<path style="fill:#021aa5; stroke:none;" d="M47 201L48 202L47 201z"/>
<path style="fill:#648ec7; stroke:none;" d="M120.333 201.667L120.667 202.333L120.333 201.667M192 201L192 284L193 284L193 227L192 201M92.3333 202.667L92.6667 203.333L92.3333 202.667M371.333 202.667L371.667 203.333L371.333 202.667M327 205L328 206L327 205M372.333 205.667L372.667 206.333L372.333 205.667M121 206L121 209L122 209L121 206M319 206L319 207L322 207L319 206z"/>
<path style="fill:#0541a9; stroke:none;" d="M278 343C285.889 336.967 292.029 327.744 298.199 320C313.942 300.242 328.315 278.696 337.388 255C341.784 243.52 346.112 227.971 341.235 216C332.42 194.36 304.005 213.001 292 221C287.715 223.855 280.57 226.967 278.603 232.04C275.095 241.091 278 256.311 278 266L278 343z"/>
<path style="fill:#648ec7; stroke:none;" d="M331.667 206.333L332.333 206.667L331.667 206.333M93.3333 207.667L93.6667 208.333L93.3333 207.667M141 207L141 211L142 211L141 207M316.667 207.333L317.333 207.667L316.667 207.333M334 207L335 208L334 207M313.667 208.333L314.333 208.667L313.667 208.333M311 209L312 210L311 209M337 209L338 210L337 209M171 210L171 214L172 214L171 210M309 210L310 211L309 210M373 210L373 213L374 213L373 210M94 211L94 214L95 214L94 211M122 211L122 214L123 214L122 211M307 211L308 212L307 211z"/>
<path style="fill:#021aa5; stroke:none;" d="M49 212L50 213L49 212z"/>
<path style="fill:#648ec7; stroke:none;" d="M305 212L306 213L305 212M339 212L340 213L339 212M303 213L304 214L303 213M340 213L341 214L340 213M302 214L303 215L302 214M142 215L142 219L143 219L142 215M300 215L301 216L300 215M341.333 215.667L341.667 216.333L341.333 215.667M95.3333 216.667L95.6667 217.333L95.3333 216.667M123.333 216.667L123.667 217.333L123.333 216.667M297 217L298 218L297 217M172 218L172 222L173 222L172 218M295 218L296 219L295 218M342.333 218.667L342.667 219.333L342.333 218.667M294 219L295 220L294 219M96 220L96 223L97 223L96 220M292 220L293 221L292 220M374 220L374 225L375 225L374 220M124.333 221.667L124.667 222.333L124.333 221.667M291 221L292 222L291 221M289 222L290 223L289 222M143 223L143 227L144 227L143 223M288 223L289 224L288 223M343 223L343 232L344 232L343 223M286 224L287 225L286 224M97.3333 225.667L97.6667 226.333L97.3333 225.667M125.333 225.667L125.667 226.333L125.333 225.667M285 225L286 226L285 225M173 226L173 229L174 229L173 226M282 227L283 228L282 227M98.3333 229.667L98.6667 230.333L98.3333 229.667M126.333 229.667L126.667 230.333L126.333 229.667M279 229L280 230L279 229M144 230L144 234L145 234L144 230M278 230L279 231L278 230M277 231L277 315C277 321.586 273.935 339.574 279 344L278 315L278 261L277 231M373 232L373 236L374 236L373 232M99.3333 233.667L99.6667 234.333L99.3333 233.667M127.333 233.667L127.667 234.333L127.333 233.667M174 233L174 236L175 236L174 233M100.333 236.667L100.667 237.333L100.333 236.667M128.333 236.667L128.667 237.333L128.333 236.667M342 236L342 239L343 239L342 236M145 237L145 240L146 240L145 237M372 239L372 242L373 242L372 239M101.333 240.667L101.667 241.333L101.333 240.667M129.333 240.667L129.667 241.333L129.333 240.667M175 240L175 243L176 243L175 240M341.333 241.667L341.667 242.333L341.333 241.667z"/>
<path style="fill:#021aa5; stroke:none;" d="M56 242L57 243L56 242z"/>
<path style="fill:#648ec7; stroke:none;" d="M130.333 243.667L130.667 244.333L130.333 243.667M146 243L146 246L147 246L146 243M102 244L103 245L102 244M371.333 244.667L371.667 245.333L371.333 244.667M340.333 245.667L340.667 246.333L340.333 245.667M176 246L176 249L177 249L176 246M103.333 247.667L103.667 248.333L103.333 247.667M131 247L132 248L131 247M339.333 248.667L339.667 249.333L339.333 248.667M370.333 248.667L370.667 249.333L370.333 248.667M147 249L147 252L148 252L147 249M104.333 250.667L104.667 251.333L104.333 250.667M132 250L133 251L132 250M177 251L177 254L178 254L177 251M338 252L339 253L338 252M369 252L370 253L369 252M133 253L134 254L133 253M105 254L106 255L105 254M337.333 254.667L337.667 255.333L337.333 254.667M148.333 255.667L148.667 256.333L148.333 255.667M368.333 255.667L368.667 256.333L368.333 255.667M134 256L135 257L134 256M106 257L107 258L106 257M178.333 257.667L178.667 258.333L178.333 257.667M336 257L337 258L336 257M367.333 258.667L367.667 259.333L367.333 258.667M135 259L136 260L135 259M335.333 259.667L335.667 260.333L335.333 259.667M107 260L108 261L107 260M149.333 260.667L149.667 261.333L149.333 260.667M136 261L137 262L136 261M366 261L367 262L366 261M179.333 262.667L179.667 263.333L179.333 262.667M334 262L335 263L334 262M108 263L109 264L108 263M137 264L138 265L137 264M333 264L334 265L333 264M365 264L366 265L365 264z"/>
<path style="fill:#021aa5; stroke:none;" d="M406 264L407 265L406 264z"/>
<path style="fill:#648ec7; stroke:none;" d="M150.333 265.667L150.667 266.333L150.333 265.667M109 266L110 267L109 266M138.333 266.667L138.667 267.333L138.333 266.667M332 266L333 267L332 266M364.333 266.667L364.667 267.333L364.333 266.667M180.333 267.667L180.667 268.333L180.333 267.667M331 268L332 269L331 268M110 269L111 270L110 269M139 269L140 270L139 269M151 269L151 272L152 272L151 269M363 269L364 270L363 269M330 270L331 271L330 270M111.333 271.667L111.667 272.333L111.333 271.667M140 271L141 272L140 271M181.333 271.667L181.667 272.333L181.333 271.667M362.333 271.667L362.667 272.333L362.333 271.667M150 272L151 273L150 272M329 272L330 273L329 272M141 273L142 274L141 273M148 273L149 274L148 273M112 274L113 275L112 274M328 274L329 275L328 274M361 274L362 275L361 274M142 275L143 276L142 275M145 275L146 276L145 275M182.333 276.667L182.667 277.333L182.333 276.667M327 276L328 277L327 276M360 276L361 277L360 276M113 277L114 278L113 277M326 278L327 279L326 278M359 278L360 279L359 278z"/>
<path style="fill:#021aa5; stroke:none;" d="M401 278L402 279L401 278z"/>
<path style="fill:#648ec7; stroke:none;" d="M114 279L115 280L114 279M183.333 280.667L183.667 281.333L183.333 280.667M358 280L359 281L358 280M324 281L325 282L324 281M115 282L116 283L115 282M357 282L358 283L357 282M323 283L324 284L323 283M116 284L117 285L116 284M184.333 284.667L184.667 285.333L184.333 284.667M356 284L357 285L356 284M117.333 286.667L117.667 287.333L117.333 286.667M321 286L322 287L321 286M355 286L356 287L355 286M185.333 288.667L185.667 289.333L185.333 288.667M320 288L321 289L320 288M354 288L355 289L354 288M118 289L119 290L118 289M353 290L354 291L353 290M119 291L120 292L119 291M186.333 291.667L186.667 292.333L186.333 291.667M318 291L319 292L318 291M352 292L353 293L352 292M120 293L121 294L120 293M316 294L317 295L316 294M351 294L352 295L351 294M121 295L122 296L121 295M187.333 295.667L187.667 296.333L187.333 295.667M350 295L351 296L350 295z"/>
<path style="fill:#021aa5; stroke:none;" d="M75 296L76 297L75 296z"/>
<path style="fill:#648ec7; stroke:none;" d="M315 296L316 297L315 296M122.333 297.667L122.667 298.333L122.333 297.667M314 297L315 298L314 297M349 297L350 298L349 297M188 299L189 300L188 299M348 299L349 300L348 299M123 300L124 301L123 300M312 300L313 301L312 300M159 301L160 302L159 301M124 302L125 303L124 302M189.333 302.667L189.667 303.333L189.333 302.667M193 302L193 310L194 310L193 302M346 302L347 303L346 302M125 303L126 304L125 303M156 303L157 304L156 303M160 303L161 304L160 303M310 303L311 304L310 303M154 304L155 305L154 304M345 304L346 305L345 304M126 305L127 306L126 305M153 305L154 306L153 305M190.333 305.667L190.667 306.333L190.333 305.667M151 306L152 307L151 306M161.333 306.667L161.667 307.333L161.333 306.667M308 306L309 307L308 306M127 307L128 308L127 307M307 307L308 308L307 307M343 307L344 308L343 307M148 308L149 309L148 308M128 309L129 310L128 309M146 309L147 310L146 309M162.333 309.667L162.667 310.333L162.333 309.667M191 309L192 310L191 309M145 310L146 311L145 310M192 310L193 311L192 310M305 310L306 311L305 310M341 310L342 311L341 310M129 311L130 312L129 311M143 311L144 312L143 311M304 311L305 312L304 311M130 312L131 313L130 312M163.333 312.667L163.667 313.333L163.333 312.667M340 312L341 313L340 312M131 313L132 314L131 313M140 313L141 314L140 313M339 313L340 314L339 313M132 314L133 315L132 314M138 314L139 315L138 314M302 314L303 315L302 314M164.333 315.667L164.667 316.333L164.333 315.667M301 315L302 316L301 315M338 315L339 316L338 315M337 316L338 317L337 316M165.333 318.667L165.667 319.333L165.333 318.667M299 318L300 319L299 318M336 318L337 319L336 318M298 319L299 320L298 319M335 319L336 320L335 319M297 320L298 321L297 320M166 321L167 322L166 321M333 322L334 323L333 322M295 323L296 324L295 323M332 323L333 324L332 323M167 324L168 325L167 324M294 324L295 325L294 324M293 325L294 326L293 325M331 325L332 326L331 325M330 326L331 327L330 326z"/>
<path style="fill:#021aa5; stroke:none;" d="M90 327L91 328L90 327z"/>
<path style="fill:#648ec7; stroke:none;" d="M168 327L169 328L168 327M169 329L170 330L169 329M290 329L291 330L290 329M328 329L329 330L328 329M289 330L290 331L289 330M327 330L328 331L327 330M288 331L289 332L288 331M170 332L171 333L170 332z"/>
<path style="fill:#021aa5; stroke:none;" d="M376 332L377 333L376 332z"/>
<path style="fill:#648ec7; stroke:none;" d="M325 333L326 334L325 333M171 334L172 335L171 334M286 334L287 335L286 334M324 334L325 335L324 334M285 335L286 336L285 335M284 336L285 337L284 336M172 337L173 338L172 337M283 337L284 338L283 337M322 337L323 338L322 337M282 338L283 339L282 338M321 338L322 339L321 338M173 339L174 340L173 339z"/>
<path style="fill:#021aa5; stroke:none;" d="M372 339L373 340L372 339z"/>
<path style="fill:#648ec7; stroke:none;" d="M174 342L175 343L174 342M279 342L280 343L279 342M318 342L319 343L318 342M317 343L318 344L317 343M175 344L176 345L175 344M176 346L177 347L176 346M314 347L315 348L314 347M177 348L178 349L177 348M313 348L314 349L313 348M312 349L313 350L312 349z"/>
<path style="fill:#021aa5; stroke:none;" d="M366 349L367 350L366 349z"/>
<path style="fill:#648ec7; stroke:none;" d="M178 351L179 352L178 351M179 353L180 354L179 353M309 353L310 354L309 353M308 354L309 355L308 354M180 355L181 356L180 355M307 355L308 356L307 355M181 357L182 358L181 357M182 359L183 360L182 359M303 360L304 361L303 360M183 361L184 362L183 361M302 361L303 362L302 361M301 362L302 363L301 362M184 363L185 364L184 363M300 363L301 364L300 363M185 365L186 366L185 365M187 368L188 369L187 368M295 369L296 370L295 369M188 370L189 371L188 370M294 370L295 371L294 370M293 371L294 372L293 371z"/>
<path style="fill:#021aa5; stroke:none;" d="M118 372L119 373L118 372z"/>
<path style="fill:#648ec7; stroke:none;" d="M189 372L190 373L189 372M292 372L293 373L292 372M291 373L292 374L291 373M190 374L191 375L190 374M290 374L291 375L290 374M289 375L290 376L289 375M192 377L193 378L192 377M193 379L194 380L193 379M194 380L195 381L194 380M195 382L196 383L195 382M197 385L198 386L197 385M279 386L280 387L279 386M198 387L199 388L198 387M278 387L279 388L278 387z"/>
<path style="fill:#021aa5; stroke:none;" d="M130 388L131 389L130 388z"/>
<path style="fill:#648ec7; stroke:none;" d="M199 388L200 389L199 388M277 388L278 389L277 388M276 389L277 390L276 389M200 390L201 391L200 390M275 390L276 391L275 390M201 391L202 392L201 391M274 391L275 392L274 391M273 392L274 393L273 392z"/>
<path style="fill:#021aa5; stroke:none;" d="M134 393L135 394L134 393z"/>
<path style="fill:#648ec7; stroke:none;" d="M272 393L273 394L272 393M203 394L204 395L203 394M271 394L272 395L271 394M270 395L271 396L270 395M269 396L270 397L269 396M205 397L206 398L205 397M268 397L269 398L268 397M206 398L207 399L206 398z"/>
</svg>
